<svg xmlns="http://www.w3.org/2000/svg" width="346" height="84"><g fill="none" fill-rule="evenodd"><path fill="#00945E" d="M83.736 20.745H76.44l-1.773 2.19c-.312.312-.208.625.104.728l2.399 1.042 6.775-3.126c.418-.208.313-.834-.21-.834m-27.1 35.545H47.67c-2.293 1.357-3.023 1.773-6.255 3.025-.23.09-.312.311-.207.626l8.007 22.411h4.588L46.45 61.816c4.779 0 16.197-1.27 22.38-11.257-1.852 2.9-6.346 5.73-12.196 5.73m12.644-32.067a1.707 1.707 0 1 1-.001-2.413 3.637 3.637 0 1 0-5.142 5.143 3.637 3.637 0 0 0 5.142-5.143 1.705 1.705 0 0 1 0 2.413M51.736 64.836l6.254 17.515h4.587l-6.568-18.346c-1.25.31-2.71.625-4.273.831m6.174-21.83c.49-.739.959-1.497 1.405-2.27-.206-.105-.387-.082-.595.127-9.277 9.8-18.242 11.05-25.123 11.05H23.069c-.312 0-.575-.4-.354-.713 8.15-11.266 17.19-20.065 23.834-25.81L28.907 40.134c-1.356 1.146-3.023 1.876-5.317 1.876H1.387c-.626 0-.417.521-.313.833 1.564 4.794 5.734 9.07 13.03 9.07l-5.211 5.316c-.21.207-.21.727.312.727h19.807c14.316 0 23.119-6.219 28.897-14.95"/><path fill="#EE2231" d="M64.134 26.952a3.638 3.638 0 1 1 5.146-5.144 3.638 3.638 0 0 1-5.146 5.144zM68.83 50.56c6.182-9.988 8.34-25.854 8.34-25.854l-2.4-1.042c-.312-.104-.416-.416-.104-.73l1.773-2.188c-1.148-2.19-5.108-5.734-10.946-5.734-3.466 0-6.493.927-9.216 2.704 0 0-3.961 2.687-9.73 7.674-6.641 5.745-15.683 14.545-23.832 25.81-.222.313.04.713.354.713h10.527c6.88 0 15.845-1.252 25.123-11.05.207-.208.388-.23.595-.128.21.106.238.337.133.546-1.46 3.544-5.106 10.737-11.778 15.01h8.965c5.848 0 10.343-2.83 12.196-5.73zm-9.084 12.062l7.016 19.73h19.58c-4.066-12.09-8.444-23.455-12.51-33.877-3.388 6.995-6.598 10.515-14.086 14.147zM0 82.351h19.804L26.509 61.4H7.226C4.932 67.654 2.502 74.532 0 82.351zm26.82-44.929l10.008-8.234c2.085-5.733 4.274-11.57 6.566-16.47 1.147 2.606 2.21 5.217 3.359 8.032 5.497-4.51 8.862-7.203 13.404-8.49C57.345 6.11 55.383 1.876 54.445 0H32.242c-1.876 3.961-8.965 18.66-17.198 38.57h8.026c1.458 0 2.71-.209 3.752-1.148zM273.536 67.03c-1.46 1.668-3.857 3.44-7.817 3.44-4.376 0-6.773-4.065-6.773-11.882 0-9.588 2.605-14.383 7.818-14.383 3.019 0 4.584.206 6.772.73V67.03zm-31.103-7.818c0 16.887 6.254 24.183 18.345 24.183 7.4 0 12.505-2.502 15.32-6.567l.834 5.524h13.237V34.405c-5.315-1.667-11.36-3.126-22.722-3.126-16.154 0-25.014 9.901-25.014 27.932zM329.15 31.28c-8.443 0-13.341 2.605-16.885 6.566l-1.042-5.524H298.09v50.03h16.259v-34.71c1.355-1.668 4.897-3.438 7.816-3.438 4.795 0 7.505 2.605 7.505 7.297v30.85h16.155v-33.04c0-12.09-5.42-18.032-16.676-18.032zm-109.232 0c-6.67 0-11.047 1.563-14.385 4.274v-21.89h-16.675v68.687h16.259V47.642c1.357-1.668 4.9-3.438 7.819-3.438 4.794 0 7.504 2.605 7.504 7.297v30.85h16.258v-33.04c0-12.09-5.418-18.032-16.78-18.032zm-49.775 38.252c-8.026 0-12.196-5.004-12.196-12.612 0-7.296 4.17-11.778 12.092-11.778 4.273 0 7.712 1.146 10.734 3.128l2.293-13.655c-4.378-1.876-9.066-3.335-16.988-3.335-16.156 0-25.014 9.276-25.014 26.267 0 17.091 8.338 25.848 24.597 25.848 7.817 0 15.32-2.397 18.448-4.485l-2.294-12.713c-3.646 1.877-7.19 3.335-11.672 3.335zM119.07 67.03c-1.355 1.668-4.897 3.44-7.817 3.44-4.795 0-7.504-2.606-7.504-7.295V32.321H87.49v33.04c0 12.09 5.42 18.033 16.78 18.033 8.443 0 13.34-2.607 16.884-6.567l1.045 5.524h13.132v-50.03h-16.26V67.03z"/><path fill="#FFF" d="M66.864 21.809a1.707 1.707 0 1 0 2.415 2.413 1.707 1.707 0 0 0-2.415-2.413"/></g></svg>
